HIERARCHY
ROOT pelvis
{
  OFFSET 0 100 0
  CHANNELS 6 Xposition Yposition Zposition Zrotation Xrotation Yrotation
  JOINT pelvis_right_femur
  {
    OFFSET -10.78128 -3.44521 -0.5502486
    CHANNELS 3 Zrotation Xrotation Yrotation
    JOINT right_femur_tibia
    {
      OFFSET -0.8047443 -44.0398 -0.1307829
      CHANNELS 3 Zrotation Xrotation Yrotation
      JOINT right_tibia_foot
      {
        OFFSET 3.006224 -47.83518 -5
        CHANNELS 3 Zrotation Xrotation Yrotation
        End Site
        {
          OFFSET 0 -5 15
        }
      }
    }
  }
  JOINT pelvis_left_femur
  {
    OFFSET 10.78128 -3.44521 -0.5502486
    CHANNELS 3 Zrotation Xrotation Yrotation
    JOINT left_femur_tibia
    {
      OFFSET 0.8047443 -44.0398 -0.1307829
      CHANNELS 3 Zrotation Xrotation Yrotation
      JOINT left_tibia_foot
      {
        OFFSET -4.370144 -48.10324 -4.275266
        CHANNELS 3 Zrotation Xrotation Yrotation
        End Site
        {
          OFFSET 0 -5 15
        }
      }
    }
  }
  JOINT pelvis_spine1
  {
    OFFSET 0 6.468898 -3.129235
    CHANNELS 3 Zrotation Xrotation Yrotation
    JOINT spine1
    {
      OFFSET 0 23.15396 4.99043
      CHANNELS 3 Zrotation Xrotation Yrotation
      JOINT spine2
      {
        OFFSET 0 20.79997 -5.064912
        CHANNELS 3 Zrotation Xrotation Yrotation
        JOINT neck
        {
          OFFSET 0 14.38658 9.616178
          CHANNELS 3 Zrotation Xrotation Yrotation
          End Site
          {
            OFFSET 0 20 0
          }
        }
      }
      JOINT right_manubrium
      {
        OFFSET -5.722621 16.35077 3.967754
        CHANNELS 3 Zrotation Xrotation Yrotation
        JOINT right_clavicle
        {
          OFFSET -13.16364 1.694482 -4.693211
          CHANNELS 3 Zrotation Xrotation Yrotation
          JOINT right_humerus
          {
            OFFSET -28.5034 -0.3100689 -2.792744
            CHANNELS 3 Zrotation Xrotation Yrotation
            JOINT right_radius
            {
              OFFSET -25.15693 0.02248979 -1.271978
              CHANNELS 3 Zrotation Xrotation Yrotation
              End Site
              {
                OFFSET -15 0 0
              }
            }
          }
        }
      }
      JOINT left_manubrium
      {
        OFFSET 5.722621 16.35077 3.967754
        CHANNELS 3 Zrotation Xrotation Yrotation
        JOINT left_clavicle
        {
          OFFSET 13.16364 1.694482 -4.693211
          CHANNELS 3 Zrotation Xrotation Yrotation
          JOINT left_humerus
          {
            OFFSET 29.39168 -1.063119 -2.237045
            CHANNELS 3 Zrotation Xrotation Yrotation
            JOINT left_radius
            {
              OFFSET 24.59957 -0.9528479 0.9047498
              CHANNELS 3 Zrotation Xrotation Yrotation
              End Site
              {
                OFFSET 15 -0 -0
              }
            }
          }
        }
      }
    }
  }
}
MOTION
Frames: 7
Frame Time: 0.0416666666667
-1438.666 104.8442 -151.6067 5.349988 6.553455 139.2161 2.757911 15.41002 -1.804778 -0 19.00592 -0 -13.19397 -9.957618 1.203307 1.545018 -17.54398 -6.43297 -0 14.03924 -0 0.4042024 -0.731489 16.81077 -0.06237476 -3.035253 7.424669 -0.781553 13.65175 -3.512367 0.4854128 21.44405 5.781921 5.037487 -14.9671 4.281759 2.329846 -25.92301 12.21875 83.42994 23.41266 -7.485177 -0 0 24.79652 -24.2349 14.36661 13.27948 4.743751 -22.56293 -7.510939 -96.4926 8.675012 34.02825 0 0 -0.09725861 11.37983 15.62062 -1.047483
-1435.847 104.8415 -156.9341 5.401224 6.511351 138.7658 2.757911 15.41002 -1.804778 -0 19.00592 -0 -13.19397 -9.957618 1.203307 1.545018 -17.54398 -6.43297 -0 14.03924 -0 0.4042024 -0.731489 16.81077 -0.06237476 -3.035253 7.424669 -0.781553 13.65175 -3.512367 0.4854128 21.44405 5.781921 5.037487 -14.9671 4.281759 2.329846 -25.92301 12.21875 83.42994 23.41266 -7.485177 -0 0 24.79652 -24.2349 14.36661 13.27948 4.743751 -22.56293 -7.510939 -96.4926 8.675012 34.02825 0 0 -0.09725861 11.37983 15.62062 -1.047483
-1432.987 104.8388 -162.2392 5.452121 6.468849 138.3155 2.757911 15.41002 -1.804778 -0 19.00592 -0 -13.19397 -9.957618 1.203307 1.545018 -17.54398 -6.43297 -0 14.03924 -0 0.4042024 -0.731489 16.81077 -0.06237476 -3.035253 7.424669 -0.781553 13.65175 -3.512367 0.4854128 21.44405 5.781921 5.037487 -14.9671 4.281759 2.329846 -25.92301 12.21875 83.42994 23.41266 -7.485177 -0 0 24.79652 -24.2349 14.36661 13.27948 4.743751 -22.56293 -7.510939 -96.4926 8.675012 34.02825 0 0 -0.09725861 11.37983 15.62062 -1.047483
-1430.085 104.8362 -167.5218 5.502676 6.42595 137.8653 2.757911 15.41002 -1.804778 -0 19.00592 -0 -13.19397 -9.957618 1.203307 1.545018 -17.54398 -6.43297 -0 14.03924 -0 0.4042024 -0.731489 16.81077 -0.06237476 -3.035253 7.424669 -0.781553 13.65175 -3.512367 0.4854128 21.44405 5.781921 5.037487 -14.9671 4.281759 2.329846 -25.92301 12.21875 83.42994 23.41266 -7.485177 -0 0 24.79652 -24.2349 14.36661 13.27948 4.743751 -22.56293 -7.510939 -96.4926 8.675012 34.02825 0 0 -0.09725861 11.37983 15.62062 -1.047483
-1427.141 104.8335 -172.7814 5.552887 6.382658 137.4151 2.757911 15.41002 -1.804778 -0 19.00592 -0 -13.19397 -9.957618 1.203307 1.545018 -17.54398 -6.43297 -0 14.03924 -0 0.4042024 -0.731489 16.81077 -0.06237476 -3.035253 7.424669 -0.781553 13.65175 -3.512367 0.4854128 21.44405 5.781921 5.037487 -14.9671 4.281759 2.329846 -25.92301 12.21875 83.42994 23.41266 -7.485177 -0 0 24.79652 -24.2349 14.36661 13.27948 4.743751 -22.56293 -7.510939 -96.4926 8.675012 34.02825 0 0 -0.09725861 11.37983 15.62062 -1.047483
-1424.156 104.8308 -178.0177 5.602749 6.338976 136.9651 2.757911 15.41002 -1.804778 -0 19.00592 -0 -13.19397 -9.957618 1.203307 1.545018 -17.54398 -6.43297 -0 14.03924 -0 0.4042024 -0.731489 16.81077 -0.06237476 -3.035253 7.424669 -0.781553 13.65175 -3.512367 0.4854128 21.44405 5.781921 5.037487 -14.9671 4.281759 2.329846 -25.92301 12.21875 83.42994 23.41266 -7.485177 -0 0 24.79652 -24.2349 14.36661 13.27948 4.743751 -22.56293 -7.510939 -96.4926 8.675012 34.02825 0 0 -0.09725861 11.37983 15.62062 -1.047483
-1421.131 104.8282 -183.2305 5.65226 6.294905 136.5151 2.757911 15.41002 -1.804778 -0 19.00592 -0 -13.19397 -9.957618 1.203307 1.545018 -17.54398 -6.43297 -0 14.03924 -0 0.4042024 -0.731489 16.81077 -0.06237476 -3.035253 7.424669 -0.781553 13.65175 -3.512367 0.4854128 21.44405 5.781921 5.037487 -14.9671 4.281759 2.329846 -25.92301 12.21875 83.42994 23.41266 -7.485177 -0 0 24.79652 -24.2349 14.36661 13.27948 4.743751 -22.56293 -7.510939 -96.4926 8.675012 34.02825 0 0 -0.09725861 11.37983 15.62062 -1.047483
